# xmcd
#
# Track frame offsets:
#	150
#	19599
#	41151
#	58489
#	74888
#	88989
#	109453
#	138080
#	152553
#	169279
#
# Disc length: 2514 seconds
#
# Revision: 1
# Processed by: cddbd v1.5.2PL0 Copyright (c) Steve Scherf et al.
# Submitted via: audiograbber 1.83.01
#
DISCID=9709d00a
DTITLE=Ciro Capone - Ciro Capone canta Pino Daniele
DYEAR=2010
DGENRE=World
TTITLE0=O' Scarrafone (Live At Acacia)
TTITLE1=Annarè
TTITLE2=Quando (Live At Acacia)
TTITLE3=Yes I Know My Way
TTITLE4=Notte Che Se Ne Va (Live At Acacia)
TTITLE5=A Mme Me Piace O' Blues
TTITLE6=Suite
TTITLE7=Resta, Resta Cu Mme
TTITLE8=A Testa In Giù
TTITLE9=Napule E'
EXTD=Ciro Capone: Batteria e Percussioni - Salvatore Pisano: Chitarra - Antonio
EXTD=Miele: Chitarra - Vincenzo Boemia: Chitarra Sinth - Agostino Pedace: Bass
EXTD=o - Davide Di Napoli: Tastiere
EXTT0=
EXTT1=
EXTT2=
EXTT3=
EXTT4=
EXTT5=
EXTT6=Putesse Essere Allero  - Je Stò Vicino A Te
EXTT7=
EXTT8=
EXTT9=
PLAYORDER=
